<?xml version="1.0" encoding="utf-8"?>
<!-- Generator: Adobe Illustrator 16.0.3, SVG Export Plug-In . SVG Version: 6.00 Build 0)  -->
<!DOCTYPE svg PUBLIC "-//W3C//DTD SVG 1.1//EN" "http://www.w3.org/Graphics/SVG/1.1/DTD/svg11.dtd">
<svg version="1.1" id="Слой_1" xmlns="http://www.w3.org/2000/svg" xmlns:xlink="http://www.w3.org/1999/xlink" x="0px" y="0px"
	 width="1006.449px" height="1006.449px" viewBox="110.616 110.616 1006.449 1006.449"
	 enable-background="new 110.616 110.616 1006.449 1006.449" xml:space="preserve">
<path fill="#0039CA" d="M1070.09,829.038l0.04-105.939c0.01-18.354,0.069-36.724-0.07-55.076c-0.12-14.999-5.49-18.031-17.79-24.053
	c13.26-16.365,17.33-30.512,17.99-51.413c0.83-26.78-8.51-52.298-32.271-66.555c-8.069-4.848-16.359-9.789-24.53-14.657
	c26.86-17.713,46.551-26.417,53.801-61.729c4.25-20.362,0.22-41.58-11.2-58.965c-4.46-6.709-10.05-12.598-16.51-17.406
	c-6.73-4.968-15.561-10.273-22.74-14.847l-37.522-23.913l-129.967-82.222l-129.236-81.23l-41.199-25.946
	c-7.306-4.612-16.215-10.601-23.573-14.664c-7.698-4.339-16.04-7.421-24.71-9.128c-5.852-1.11-11.796-1.661-17.753-1.644
	c-33.194,2.099-49.68,17.029-76.534,33.903l-74.972,46.813L264.071,324.532l-46.906,29.99c-11.918,7.65-29.921,17.903-38.906,28.043
	c-13.625,15.384-20.529,35.581-19.172,56.086c1.122,18.455,9.652,39.101,23.842,51.142c9.249,7.85,23.925,15.575,34.398,22.334
	c-23.736,14.076-48.902,27.627-54.808,57.066c-4.865,24.252-5.765,62.524,7.002,84.378c10.24,17.526,31.545,27.144,47.751,38.154
	c-19.287,11.97-40.729,22.449-50.811,44.021c-12.239,26.185-12.216,71.641,3.239,96.303c4.1,6.688,9.526,12.462,15.945,16.97
	c6.691,4.74,15.28,9.78,22.349,14.234l41.305,26.232c41.471,26.778,82.798,53.778,123.979,81.001l129.034,85.784l37.165,24.85
	c17.136,11.63,30.76,22.79,51.75,27.25c22.673,4.82,46.321,1.71,66.185-10.85c14.867-9.87,29.93-20.421,44.896-30.44
	c40.528-27.41,81.196-54.62,122.002-81.615c-0.025-14.35,0.368-30.932-0.151-45.078c-13.625,8.229-28.234,18.369-41.662,27.204
	c-33.623,22.321-67.101,44.859-100.432,67.619c-9.865,6.71-19.675,13.5-29.428,20.38c-6.026,4.21-15.34,11.29-21.678,13.97
	c-10.318,4.28-21.753,5.091-32.568,2.28c-4.57-1.13-8.946-2.93-12.986-5.35c-8.188-4.811-19.652-13.2-27.752-18.71l-44.788-29.95
	c-51.071-34.23-102.315-68.202-153.731-101.914c-33.621-21.889-67.362-43.595-101.219-65.117
	c-16.275-10.364-32.65-20.575-48.896-30.984c-3.482-2.187-5.957-4.757-8.091-8.26c-5.66-9.288-5.361-19.267-5.535-29.606
	c-0.291-17.185,0.501-33.375,16.826-43.341c13.182-8.048,26.675-15.891,39.864-23.992c74.894,47.175,149.01,95.573,222.316,145.177
	l64.734,43.809c9.778,6.64,28.191,19.908,38.008,24.241c16.738,7.452,35.442,9.271,53.302,5.182
	c7.833-1.819,15.369-4.735,22.387-8.661c6.699-3.75,15.59-10.316,22.17-14.866c11.112-7.669,22.281-15.256,33.506-22.761
	c32.322-21.688,67.9-44.333,99.46-66.396c-0.079-28.745,3.04-16.496-15.208-34.938c-22.482,14.614-44.887,29.35-67.211,44.201
	c-9.729,6.467-25.938,16.613-34.751,23.351c-10.899,7.209-21.707,14.554-32.424,22.034c-9.144,6.306-19.418,14.459-29.688,18.54
	c-8.003,3.179-18.152,3.946-26.486,2.007c-4.392-1.058-9.411-2.139-13.304-4.648c-11.55-7.446-22.964-15.335-34.329-23.064
	c-19.263-13.17-38.616-26.207-58.059-39.108c-62.891-41.698-126.154-82.83-189.785-123.39l-65.689-41.777
	c-11.042-6.997-22.272-13.994-33.237-21.127c-1.782-1.159-3.761-3.656-4.952-5.43c-7.285-10.853-5.883-24.439-6.007-36.867
	c-0.065-6.503-0.122-14.021,1.283-20.297c2.212-9.877,7.033-16.954,15.924-22.141c12.733-7.428,25.693-16.114,38.491-23.253
	c72.666,45.064,144.35,91.697,214.997,139.864l69.285,46.874c11.156,7.514,30.925,21.711,42.669,26.726
	c17.926,7.662,37.839,9.363,56.806,4.853c7.361-1.795,14.475-4.494,21.174-8.036c9.798-5.204,26.667-17.026,36.402-23.456
	l66.572-43.896l140.084-91.846c25.156-16.515,52.77-35.557,78.097-51.109c8.68,5.106,17.38,10.178,26.039,15.343
	c12.391,7.383,23.44,11.604,26.96,27.236c3.141,13.915,2.11,34.081-10.43,43.404c-6.06,4.207-13.11,8.487-19.37,12.473
	l-33.437,21.558l-116.12,75.105c-6.63,4.278-12.828,8.109-19.965,12.794c-8.3,5.447-36.916,19.322-20.1,31.641
	c7.006,5.131,27.789-4.375,32.437,9.926c1.576,6.501,0.81,32.529,0.812,40.057V967.97l-0.038,41.221
	c-0.018,6.88-0.482,15.479,0.261,22.119c1.315,11.79,14.677,13.5,21.472,4.381c6.688-8.98,13.169-18.07,19.793-27.061l46.449-63.497
	c24.538-33.758,20.971-36.812,58.017-14.673l41.271,24.578c5.949,3.517,12.359,8.158,18.979,10.251
	c3.36,1.061,7.09,1.173,10.33-0.349c3.49-1.641,5.88-4.969,7.1-8.552C1071.39,949.602,1070.1,844.229,1070.09,829.038z
	 M801.44,483.619l-71.653,46.336L677.413,563.8c-7.268,4.694-26.235,18.034-33.603,19.984c-4.127-0.942-5.652-1.524-9.21-3.885
	c-19.576-12.984-38.951-26.455-58.304-39.763l-103.981-71.161l-51.672-35.045c-6.848-4.602-16.243-10.564-22.865-15.807
	c-1.122-0.888-0.777-1.992-0.605-3.094c2.022-2.696,30.307-20.217,34.719-23.054l95.152-60.86l51.896-33.07
	c6.31-3.986,25.855-17.283,32.137-18.689c10.035,0.243,19.12,9.489,27.371,14.835c4.128,2.675,21.071,12.589,21.848,16.957
	c-2.806,3.959-25.351,17.533-30.64,20.918l-77.481,49.778c-11.404,7.287-30.041,17.786-40.11,26.093
	c3.957,3.766,45.73,34.004,51.08,32.061c5.469-1.986,23.763-13.789,30.053-17.716l55.099-34.462
	c3.234-2.024,16.489-10.554,19.141-11.253c6.485-1.71,22.575,11.955,28.707,15.585c2.988,1.767,11.789,7.683,12.41,11.04
	c-3.2,6.073-90.54,58.132-103.45,68.146l-0.594,0.47c7.191,8.264,29.247,19.581,38.302,27.393c1.942,1.3,11.665,8.323,13.794,7.632
	c10.455-3.393,34.924-20.073,43.468-25.455l64.52-40.624c7.335-4.661,23.123-15.647,31.204-18.319
	c5.397-1.784,13.817,4.845,18.414,8.046c5.478,3.927,30.353,18.768,31.057,23.651C842.739,457.784,807.134,479.939,801.44,483.619z"
	/>
<path fill="#0039CA" d="M814.211,430.48c-4.597-3.201-13.017-9.83-18.414-8.046c-8.081,2.672-23.869,13.658-31.204,18.319
	l-64.52,40.624c-8.544,5.382-33.013,22.063-43.468,25.455c-2.129,0.691-11.852-6.332-13.794-7.632
	c-9.055-7.812-31.11-19.129-38.302-27.393l0.594-0.47c12.91-10.014,100.25-62.073,103.45-68.146
	c-0.621-3.357-9.422-9.273-12.41-11.04c-6.132-3.63-22.222-17.295-28.707-15.585c-2.651,0.699-15.906,9.229-19.141,11.253
	l-55.099,34.462c-6.29,3.927-24.584,15.729-30.053,17.716c-5.35,1.943-47.123-28.295-51.08-32.061
	c10.069-8.307,28.706-18.806,40.11-26.093l77.481-49.778c5.289-3.385,27.834-16.959,30.64-20.918
	c-0.776-4.368-17.72-14.282-21.848-16.957c-8.251-5.346-17.336-14.592-27.371-14.835c-6.281,1.406-25.827,14.703-32.137,18.689
	l-51.896,33.07l-95.152,60.86c-4.412,2.837-32.696,20.358-34.719,23.054c-0.172,1.102-0.517,2.206,0.605,3.094
	c6.622,5.242,16.018,11.205,22.865,15.807l51.672,35.045l103.981,71.161c19.353,13.308,38.728,26.778,58.304,39.763
	c3.558,2.36,5.083,2.942,9.21,3.885c7.367-1.95,26.335-15.29,33.603-19.984l52.373-33.845l71.653-46.336
	c5.694-3.68,41.299-25.835,43.828-29.487C844.564,449.248,819.689,434.407,814.211,430.48z"/>
<path fill="#FFFFFF" d="M1020.4,407.374c-5.34-4.107-11.81-7.962-17.649-11.594l-29.64-18.578L864.89,308.996l-153.608-96.923
	L661.75,180.77c-16.462-10.408-28.38-21.183-48.649-21.324c-6.329,0.532-15.157,1.892-20.645,5.227
	c-10.385,6.311-20.927,13.103-31.199,19.589l-61.358,38.578L274.784,364.397l-38.328,24.17c-8.576,5.371-25.199,14.386-31.795,21.45
	c-11.645,12.469-10.795,40.483,3.256,51.076c6.793,5.122,15.47,10.168,22.746,14.74l38.697,24.47l137.806,88.106
	c40.558,26.493,80.766,53.516,120.614,81.063l41.384,28.309c17.831,12.127,24.572,19.812,47.099,20.693
	c21.952-1.296,33.672-12.837,51.353-24.632l56.514-37.765l155.703-103.24l100.709-65.901c12.599-8.22,28.209-17.489,40.009-26.47
	C1034.53,449.825,1034.67,418.333,1020.4,407.374z M801.44,483.619l-71.653,46.336L677.413,563.8
	c-7.268,4.694-26.235,18.034-33.603,19.984c-4.127-0.942-5.652-1.524-9.21-3.885c-19.576-12.984-38.951-26.455-58.304-39.763
	l-103.981-71.161l-51.672-35.045c-6.848-4.602-16.243-10.564-22.865-15.807c-1.122-0.888-0.777-1.992-0.605-3.094
	c2.022-2.696,30.307-20.217,34.719-23.054l95.152-60.86l51.896-33.07c6.31-3.986,25.855-17.283,32.137-18.689
	c10.035,0.243,19.12,9.489,27.371,14.835c4.128,2.675,21.071,12.589,21.848,16.957c-2.806,3.959-25.351,17.533-30.64,20.918
	l-77.481,49.778c-11.404,7.287-30.041,17.786-40.11,26.093c3.957,3.766,45.73,34.004,51.08,32.061
	c5.469-1.986,23.763-13.789,30.053-17.716l55.099-34.462c3.234-2.024,16.489-10.554,19.141-11.253
	c6.485-1.71,22.575,11.955,28.707,15.585c2.988,1.767,11.789,7.683,12.41,11.04c-3.2,6.073-90.54,58.132-103.45,68.146l-0.594,0.47
	c7.191,8.264,29.247,19.581,38.302,27.393c1.942,1.3,11.665,8.323,13.794,7.632c10.455-3.393,34.924-20.073,43.468-25.455
	l64.52-40.624c7.335-4.661,23.123-15.647,31.204-18.319c5.397-1.784,13.817,4.845,18.414,8.046
	c5.478,3.927,30.353,18.768,31.057,23.651C842.739,457.784,807.134,479.939,801.44,483.619z"/>
<path fill="#0039CA" d="M814.211,430.48c-4.597-3.201-13.017-9.83-18.414-8.046c-8.081,2.672-23.869,13.658-31.204,18.319
	l-64.52,40.624c-8.544,5.382-33.013,22.063-43.468,25.455c-2.129,0.691-11.852-6.332-13.794-7.632
	c-9.055-7.812-31.11-19.129-38.302-27.393l0.594-0.47c12.91-10.014,100.25-62.073,103.45-68.146
	c-0.621-3.357-9.422-9.273-12.41-11.04c-6.132-3.63-22.222-17.295-28.707-15.585c-2.651,0.699-15.906,9.229-19.141,11.253
	l-55.099,34.462c-6.29,3.927-24.584,15.729-30.053,17.716c-5.35,1.943-47.123-28.295-51.08-32.061
	c10.069-8.307,28.706-18.806,40.11-26.093l77.481-49.778c5.289-3.385,27.834-16.959,30.64-20.918
	c-0.776-4.368-17.72-14.282-21.848-16.957c-8.251-5.346-17.336-14.592-27.371-14.835c-6.281,1.406-25.827,14.703-32.137,18.689
	l-51.896,33.07l-95.152,60.86c-4.412,2.837-32.696,20.358-34.719,23.054c-0.172,1.102-0.517,2.206,0.605,3.094
	c6.622,5.242,16.018,11.205,22.865,15.807l51.672,35.045l103.981,71.161c19.353,13.308,38.728,26.778,58.304,39.763
	c3.558,2.36,5.083,2.942,9.21,3.885c7.367-1.95,26.335-15.29,33.603-19.984l52.373-33.845l71.653-46.336
	c5.694-3.68,41.299-25.835,43.828-29.487C844.564,449.248,819.689,434.407,814.211,430.48z"/>
<path fill="#FFFFFF" d="M959.328,717.29l1.258,0.319c2.539,1.959,16.791,35.654,19.476,41.387c9.088-1.962,18.198-3.849,27.318-5.66
	c4.46-0.918,12.88-3.002,17.14-3.159l1.12,1.246c0.31,3.468-28.021,40.032-32.43,46.063c1.409,6.201,11.81,46.817,8.369,49.949
	c-5.779-0.284-32.796-10.541-39.693-13.001c-2.319,2.052-4.824,4.709-7.034,6.938c-3.68,4.171-28.582,30.896-31.615,31.201
	l-1.065-0.887c-0.861-3.286,6.604-46.827,7.454-53.442c-5.466-3.834-31.898-21.338-32.926-24.678
	c2.599-5.216,36.604-18.101,44.606-21.609c4.355-11.515,7.853-26.521,12.069-38.376C955.091,728.758,956.7,721.478,959.328,717.29z"
	/>
</svg>
